<mxfile host="app.diagrams.net" modified="2022-08-10T13:31:45.496Z" agent="5.0 (Windows)" etag="ApyTgfLZtRuCr5v2NrV5" version="20.2.3" type="github">
  <diagram id="fxpMy1MvDavEP5wEhpTM" name="PÃ¡gina-1">
    <mxGraphModel dx="1022" dy="384" grid="1" gridSize="10" guides="1" tooltips="1" connect="1" arrows="1" fold="1" page="1" pageScale="1" pageWidth="827" pageHeight="1169" math="0" shadow="0">
      <root>
        <mxCell id="0" />
        <mxCell id="1" parent="0" />
        <mxCell id="EwkXzUQBeiqE4QdTnfD2-7" value="" style="rounded=0;whiteSpace=wrap;html=1;" vertex="1" parent="1">
          <mxGeometry x="40" y="250" width="760" height="150" as="geometry" />
        </mxCell>
        <mxCell id="EwkXzUQBeiqE4QdTnfD2-6" value="" style="rounded=0;whiteSpace=wrap;html=1;" vertex="1" parent="1">
          <mxGeometry x="40" y="90" width="760" height="150" as="geometry" />
        </mxCell>
        <mxCell id="EwkXzUQBeiqE4QdTnfD2-1" value="" style="group" vertex="1" connectable="0" parent="1">
          <mxGeometry x="50" y="100" width="85" height="140" as="geometry" />
        </mxCell>
        <mxCell id="j99Gu-w2fLsjkU9y8sFW-1" value="Actor" style="shape=umlActor;verticalLabelPosition=bottom;verticalAlign=top;html=1;outlineConnect=0;fillColor=#3333FF;" parent="EwkXzUQBeiqE4QdTnfD2-1" vertex="1">
          <mxGeometry width="70" height="120" as="geometry" />
        </mxCell>
        <mxCell id="j99Gu-w2fLsjkU9y8sFW-2" value="" style="shape=flexArrow;endArrow=classic;html=1;rounded=0;" parent="EwkXzUQBeiqE4QdTnfD2-1" edge="1">
          <mxGeometry width="50" height="50" relative="1" as="geometry">
            <mxPoint x="40" y="93.33333333333333" as="sourcePoint" />
            <mxPoint x="90" y="26.666666666666668" as="targetPoint" />
            <Array as="points">
              <mxPoint x="80" y="40" />
            </Array>
          </mxGeometry>
        </mxCell>
        <mxCell id="EwkXzUQBeiqE4QdTnfD2-2" value="" style="group" vertex="1" connectable="0" parent="1">
          <mxGeometry x="220" y="320" width="80" height="120" as="geometry" />
        </mxCell>
        <mxCell id="EwkXzUQBeiqE4QdTnfD2-3" value="Actor" style="shape=umlActor;verticalLabelPosition=bottom;verticalAlign=top;html=1;outlineConnect=0;fillColor=#3333FF;" vertex="1" parent="EwkXzUQBeiqE4QdTnfD2-2">
          <mxGeometry width="70" height="120" as="geometry" />
        </mxCell>
        <mxCell id="EwkXzUQBeiqE4QdTnfD2-4" value="" style="shape=flexArrow;endArrow=classic;html=1;rounded=0;" edge="1" parent="EwkXzUQBeiqE4QdTnfD2-2">
          <mxGeometry width="50" height="50" relative="1" as="geometry">
            <mxPoint x="40" y="93.33333333333333" as="sourcePoint" />
            <mxPoint x="90" y="26.666666666666668" as="targetPoint" />
            <Array as="points">
              <mxPoint x="80" y="40" />
            </Array>
          </mxGeometry>
        </mxCell>
        <mxCell id="EwkXzUQBeiqE4QdTnfD2-8" value="" style="group" vertex="1" connectable="0" parent="1">
          <mxGeometry x="60" y="270" width="80" height="120" as="geometry" />
        </mxCell>
        <mxCell id="EwkXzUQBeiqE4QdTnfD2-9" value="Actor" style="shape=umlActor;verticalLabelPosition=bottom;verticalAlign=top;html=1;outlineConnect=0;fillColor=#3333FF;" vertex="1" parent="EwkXzUQBeiqE4QdTnfD2-8">
          <mxGeometry width="70" height="120" as="geometry" />
        </mxCell>
        <mxCell id="EwkXzUQBeiqE4QdTnfD2-10" value="" style="shape=flexArrow;endArrow=classic;html=1;rounded=0;" edge="1" parent="EwkXzUQBeiqE4QdTnfD2-8">
          <mxGeometry width="50" height="50" relative="1" as="geometry">
            <mxPoint x="40" y="93.33333333333333" as="sourcePoint" />
            <mxPoint x="90" y="26.666666666666668" as="targetPoint" />
            <Array as="points">
              <mxPoint x="80" y="40" />
            </Array>
          </mxGeometry>
        </mxCell>
      </root>
    </mxGraphModel>
  </diagram>
</mxfile>
